<mxfile host="app.diagrams.net" modified="2023-10-20T08:29:53.173Z" agent="Mozilla/5.0 (Windows NT 10.0; Win64; x64) AppleWebKit/537.36 (KHTML, like Gecko) Chrome/118.0.0.0 Safari/537.36" etag="id4PbcHo6RZLJP3d3H8G" version="22.0.5" type="github">
  <diagram name="Страница — 1" id="HV1xr7kACfmK--PHIMH8">
    <mxGraphModel dx="1434" dy="758" grid="1" gridSize="10" guides="1" tooltips="1" connect="1" arrows="1" fold="1" page="1" pageScale="1" pageWidth="827" pageHeight="1169" math="0" shadow="0">
      <root>
        <mxCell id="0" />
        <mxCell id="1" parent="0" />
        <mxCell id="fbdDRWzfz0w073XtA8N0-3" value="" style="edgeStyle=orthogonalEdgeStyle;rounded=0;orthogonalLoop=1;jettySize=auto;html=1;" edge="1" parent="1" source="fbdDRWzfz0w073XtA8N0-1" target="fbdDRWzfz0w073XtA8N0-2">
          <mxGeometry relative="1" as="geometry" />
        </mxCell>
        <mxCell id="fbdDRWzfz0w073XtA8N0-1" value="start" style="ellipse;whiteSpace=wrap;html=1;" vertex="1" parent="1">
          <mxGeometry x="170" y="40" width="60" height="40" as="geometry" />
        </mxCell>
        <mxCell id="fbdDRWzfz0w073XtA8N0-2" value="\регистрация" style="rhombus;whiteSpace=wrap;html=1;" vertex="1" parent="1">
          <mxGeometry x="150" y="100" width="100" height="70" as="geometry" />
        </mxCell>
      </root>
    </mxGraphModel>
  </diagram>
</mxfile>
